<?xml version="1.0" standalone="no"?>
<!DOCTYPE svg PUBLIC "-//W3C//DTD SVG 20010904//EN"
 "http://www.w3.org/TR/2001/REC-SVG-20010904/DTD/svg10.dtd">
<svg version="1.0" xmlns="http://www.w3.org/2000/svg"
 width="1280.000000pt" height="704.000000pt" viewBox="0 0 1280.000000 704.000000"
 preserveAspectRatio="xMidYMid meet">
<g transform="translate(0.000000,704.000000) scale(0.100000,-0.100000)"
fill="#000000" stroke="none">
<path d="M710 4010 l0 -2940 60 0 60 0 0 2940 0 2940 -60 0 -60 0 0 -2940z"/>
<path d="M950 4010 c0 -2796 1 -2941 17 -2938 17 3 18 151 18 2938 0 2787 -1
2935 -17 2938 -17 3 -18 -142 -18 -2938z"/>
<path d="M1180 4010 c0 -2933 0 -2940 20 -2940 20 0 20 7 20 2940 0 2933 0
2940 -20 2940 -20 0 -20 -7 -20 -2940z"/>
<path d="M1580 4010 l0 -2940 135 0 135 0 0 2940 0 2940 -135 0 -135 0 0
-2940z"/>
<path d="M1970 4010 c0 -2933 0 -2940 20 -2940 20 0 20 7 20 2940 0 2933 0
2940 -20 2940 -20 0 -20 -7 -20 -2940z"/>
<path d="M2130 4010 l0 -2940 100 0 100 0 0 2940 0 2940 -100 0 -100 0 0
-2940z"/>
<path d="M2450 4010 l0 -2940 95 0 95 0 0 2940 0 2940 -95 0 -95 0 0 -2940z"/>
<path d="M2760 4010 c0 -2933 0 -2940 20 -2940 20 0 20 7 20 2940 0 2933 0
2940 -20 2940 -20 0 -20 -7 -20 -2940z"/>
<path d="M3070 4010 l0 -2941 63 3 62 3 0 2935 0 2935 -62 3 -63 3 0 -2941z"/>
<path d="M3310 4010 c0 -2933 0 -2940 20 -2940 20 0 20 7 20 2940 0 2933 0
2940 -20 2940 -20 0 -20 -7 -20 -2940z"/>
<path d="M3705 6938 c-3 -7 -4 -1329 -3 -2938 l3 -2925 58 -3 57 -3 0 2941 0
2940 -55 0 c-35 0 -57 -5 -60 -12z"/>
<path d="M3940 4010 c0 -2933 0 -2940 20 -2940 20 0 20 7 20 2940 0 2933 0
2940 -20 2940 -20 0 -20 -7 -20 -2940z"/>
<path d="M4180 4010 l0 -2940 55 0 55 0 0 2940 0 2940 -55 0 -55 0 0 -2940z"/>
<path d="M4650 4010 c0 -2933 0 -2940 20 -2940 20 0 20 7 20 2940 0 2933 0
2940 -20 2940 -20 0 -20 -7 -20 -2940z"/>
<path d="M4890 4010 c0 -2796 1 -2941 18 -2938 16 3 17 151 17 2938 0 2787 -1
2935 -17 2938 -17 3 -18 -142 -18 -2938z"/>
<path d="M5045 6938 c-3 -7 -4 -1329 -3 -2938 3 -2776 4 -2925 21 -2928 16 -3
17 142 17 2937 0 2634 -2 2941 -15 2941 -9 0 -18 -6 -20 -12z"/>
<path d="M5440 4010 l0 -2940 60 0 60 0 0 2940 0 2940 -60 0 -60 0 0 -2940z"/>
<path d="M5670 4010 c0 -2933 0 -2940 20 -2940 20 0 20 7 20 2940 0 2933 0
2940 -20 2940 -20 0 -20 -7 -20 -2940z"/>
<path d="M5910 4010 c0 -2933 0 -2940 20 -2940 20 0 20 7 20 2940 0 2933 0
2940 -20 2940 -20 0 -20 -7 -20 -2940z"/>
<path d="M6070 4010 c0 -2933 0 -2940 20 -2940 20 0 20 7 20 2940 0 2933 0
2940 -20 2940 -20 0 -20 -7 -20 -2940z"/>
<path d="M6300 4010 l0 -2940 140 0 140 0 0 2940 0 2940 -140 0 -140 0 0
-2940z"/>
<path d="M6780 4010 c0 -2796 1 -2941 18 -2938 16 3 17 151 17 2938 0 2787 -1
2935 -17 2938 -17 3 -18 -142 -18 -2938z"/>
<path d="M6940 4010 l0 -2940 55 0 55 0 0 2940 0 2940 -55 0 -55 0 0 -2940z"/>
<path d="M7250 4010 c0 -2933 0 -2940 20 -2940 20 0 20 7 20 2940 0 2933 0
2940 -20 2940 -20 0 -20 -7 -20 -2940z"/>
<path d="M7640 4010 c0 -2933 0 -2940 20 -2940 20 0 20 7 20 2940 0 2933 0
2940 -20 2940 -20 0 -20 -7 -20 -2940z"/>
<path d="M8032 4013 c3 -2789 4 -2938 21 -2941 16 -3 17 142 17 2937 0 2935 0
2941 -20 2941 -20 0 -20 -5 -18 -2937z"/>
<path d="M8270 4010 l0 -2940 60 0 60 0 0 2940 0 2940 -60 0 -60 0 0 -2940z"/>
<path d="M8510 4010 c0 -2933 0 -2940 20 -2940 20 0 20 7 20 2940 0 2933 0
2940 -20 2940 -20 0 -20 -7 -20 -2940z"/>
<path d="M8900 4010 l0 -2940 60 0 60 0 0 2940 0 2940 -60 0 -60 0 0 -2940z"/>
<path d="M9140 4010 c0 -2933 0 -2940 20 -2940 20 0 20 7 20 2940 0 2933 0
2940 -20 2940 -20 0 -20 -7 -20 -2940z"/>
<path d="M9375 6938 c-3 -7 -4 -1329 -3 -2938 3 -2917 3 -2925 23 -2925 20 0
20 7 20 2935 0 2789 -1 2935 -18 2938 -9 2 -19 -2 -22 -10z"/>
<path d="M9610 4010 c0 -2933 0 -2940 20 -2940 20 0 20 7 20 2940 0 2933 0
2940 -20 2940 -20 0 -20 -7 -20 -2940z"/>
<path d="M9770 4010 l0 -2940 60 0 60 0 0 2940 0 2940 -60 0 -60 0 0 -2940z"/>
<path d="M10240 4010 c0 -2933 0 -2940 20 -2940 20 0 20 7 20 2940 0 2933 0
2940 -20 2940 -20 0 -20 -7 -20 -2940z"/>
<path d="M10400 4010 l0 -2940 135 0 135 0 0 2940 0 2940 -135 0 -135 0 0
-2940z"/>
<path d="M10790 4010 l0 -2940 100 0 100 0 0 2940 0 2940 -100 0 -100 0 0
-2940z"/>
<path d="M11106 6934 c-8 -20 -8 -5828 0 -5848 5 -12 21 -16 65 -16 l59 0 0
2940 0 2940 -59 0 c-44 0 -60 -4 -65 -16z"/>
<path d="M11500 4010 l0 -2940 100 0 100 0 0 2940 0 2940 -100 0 -100 0 0
-2940z"/>
<path d="M11815 6938 c-3 -7 -4 -1329 -3 -2938 3 -2776 4 -2925 21 -2928 16
-3 17 142 17 2937 0 2634 -2 2941 -15 2941 -9 0 -18 -6 -20 -12z"/>
<path d="M11970 4010 l0 -2940 60 0 60 0 0 2940 0 2940 -60 0 -60 0 0 -2940z"/>
</g>
</svg>
