<svg width="176" height="230" viewBox="0 0 176 230" fill="none" xmlns="http://www.w3.org/2000/svg">
<path fill-rule="evenodd" clip-rule="evenodd" d="M164.691 0.721242C169.987 -1.67025 176 2.17782 176 7.9592V105.424C176 108.542 174.166 111.373 171.309 112.662L107.309 141.559C102.013 143.95 96 140.102 96 134.321V36.8557C96 33.7377 97.8341 30.9075 100.691 29.6178L164.691 0.721242ZM11.4113 0.961047C6.10495 -1.52491 0 2.32219 0 8.15203V191.595C0 194.673 1.78741 197.474 4.58865 198.786L68.5886 228.769C73.895 231.255 80 227.408 80 221.578V38.1349C80 35.0573 78.2126 32.2562 75.4113 30.9439L11.4113 0.961047Z" fill="black"/>
</svg>
