<svg xmlns="http://www.w3.org/2000/svg" width="176" height="230" fill="none"><path fill="#000" fill-rule="evenodd" d="M164.691.806C169.988-1.585 176 2.263 176 8.044v97.465a7.946 7.946 0 0 1-4.691 7.238l-64 28.897C102.013 144.035 96 140.187 96 134.406V36.941a7.947 7.947 0 0 1 4.691-7.238l64-28.897Zm-153.28.24C6.105-1.44.001 2.407.001 8.237V191.68a7.946 7.946 0 0 0 4.588 7.191l64 29.983C73.895 231.34 80 227.493 80 221.663V38.22a7.946 7.946 0 0 0-4.588-7.191l-64-29.983Z" clip-rule="evenodd"/></svg>